<?xml version="1.0" encoding="utf-8"?>
<!-- Generator: Adobe Illustrator 15.1.0, SVG Export Plug-In  -->
<!DOCTYPE svg PUBLIC "-//W3C//DTD SVG 1.1//EN" "http://www.w3.org/Graphics/SVG/1.1/DTD/svg11.dtd" [
	<!ENTITY ns_flows "http://ns.adobe.com/Flows/1.0/">
]>
<svg version="1.1"
	 xmlns="http://www.w3.org/2000/svg" xmlns:xlink="http://www.w3.org/1999/xlink" xmlns:a="http://ns.adobe.com/AdobeSVGViewerExtensions/3.0/"
	 x="0px" y="0px" width="800px" height="800px" viewBox="0 0 800 800" enable-background="new 0 0 800 800" xml:space="preserve">
<defs>
</defs>
<g>
	<defs>
		<rect id="SVGID_1_" width="800" height="800"/>
	</defs>
	<clipPath id="SVGID_58_">
		<use xlink:href="#SVGID_1_"  overflow="visible"/>
	</clipPath>
	<g clip-path="url(#SVGID_58_)">
		<defs>
			<rect id="SVGID_57_" width="800" height="800"/>
		</defs>
		<clipPath id="SVGID_59_">
			<use xlink:href="#SVGID_57_"  overflow="visible"/>
		</clipPath>
	</g>
	<g clip-path="url(#SVGID_58_)">
		<defs>
			<rect id="SVGID_2_" width="800" height="800"/>
		</defs>
		<clipPath id="SVGID_60_">
			<use xlink:href="#SVGID_2_"  overflow="visible"/>
		</clipPath>
		<g display="none" opacity="0.1" clip-path="url(#SVGID_60_)">
			<g>
				<defs>
					<rect id="SVGID_56_" x="509.318" y="637.719" width="170.293" height="43.803"/>
				</defs>
				<clipPath id="SVGID_61_" display="inline">
					<use xlink:href="#SVGID_56_"  display="none" overflow="visible"/>
				</clipPath>
			</g>
		</g>
		<path display="none" clip-path="url(#SVGID_60_)" fill="#534741" d="M623.275,637.951c0,0-0.166,11-1.834,17.834
			c0,0,0.168,3.332,8.334,4.832c8.168,1.5,14.168,7.5,17.168,12.668c3,5.166,27,3.832,27.5,3.5c0,0-11.5-15.334-18.668-22.334
			c-7.166-7-16.498-15.334-17.832-15.666C636.609,638.451,623.275,637.951,623.275,637.951"/>
		<g display="none" opacity="0.15" clip-path="url(#SVGID_60_)">
			<g>
				<defs>
					<rect id="SVGID_55_" x="622.898" y="637.951" width="22.902" height="7.497"/>
				</defs>
				<clipPath id="SVGID_62_" display="inline">
					<use xlink:href="#SVGID_55_"  display="none" overflow="visible"/>
				</clipPath>
			</g>
		</g>
		
			<path display="none" clip-path="url(#SVGID_60_)" fill="none" stroke="#3D3530" stroke-linecap="round" stroke-linejoin="round" stroke-miterlimit="10" d="
			M642.721,641.564c0,0-8.67,6.687-7.715,12.709c0.955,6.025,5.732,3.234,5.07,0.221
			C639.414,651.482,641.324,643.254,642.721,641.564z"/>
		
			<path display="none" clip-path="url(#SVGID_60_)" fill="none" stroke="#3D3530" stroke-linecap="round" stroke-linejoin="round" stroke-miterlimit="10" d="
			M643.088,641.783c0,0,3.746,11.314,0,16.678"/>
		<path display="none" clip-path="url(#SVGID_60_)" fill="#534741" d="M571.525,637.035v18.5c0,2.375-22,0.75-35,10.5
			c0,0-16.5-3.25-20.25-4.75c0,0,5.25-10.75,13-12.75s24.25-7,25-12L571.525,637.035z"/>
		<g display="none" opacity="0.15" clip-path="url(#SVGID_60_)">
			<g>
				<defs>
					<rect id="SVGID_54_" x="551.078" y="636.535" width="20.447" height="6.387"/>
				</defs>
				<clipPath id="SVGID_63_" display="inline">
					<use xlink:href="#SVGID_54_"  display="none" overflow="visible"/>
				</clipPath>
			</g>
		</g>
		
			<path display="none" clip-path="url(#SVGID_60_)" fill="none" stroke="#3D3530" stroke-linecap="round" stroke-linejoin="round" stroke-miterlimit="10" d="
			M549.469,641.355c0,0-12.73,12.027-6.699,15.582C547.133,659.508,550.094,642.135,549.469,641.355z"/>
		
			<path display="none" clip-path="url(#SVGID_60_)" fill="none" stroke="#3D3530" stroke-linecap="round" stroke-linejoin="round" stroke-miterlimit="10" d="
			M550.092,640.967c0,0,4.207,5.219,2.338,11.451"/>
		<path display="none" clip-path="url(#SVGID_60_)" fill="#293842" d="M635.564,419.563c0.266,5.16,0.588,10.168,0.975,14.916
			c2.986,36.666,5.242,126.967,2.514,204.684c0,0-10.609-0.377-16.189-0.598c0.451-79.264-2.566-178.67-24.898-177.111
			c-8.217,0.574-19.953,26.475-23.295,82.75c-3.34,56.275-2.826,93.764-2.826,93.764l-18.635-0.35
			c3.676-163.391,5.115-163.27,6.066-203.332l1.516-15.445L635.564,419.563z"/>
		<g display="none" opacity="0.15" clip-path="url(#SVGID_60_)">
			<g>
				<defs>
					<rect id="SVGID_53_" x="559.549" y="418.84" width="76.762" height="12.668"/>
				</defs>
				<clipPath id="SVGID_64_" display="inline">
					<use xlink:href="#SVGID_53_"  display="none" overflow="visible"/>
				</clipPath>
			</g>
		</g>
		<path display="none" clip-path="url(#SVGID_60_)" fill="#3A505E" d="M716.6,295.461c-7.195,24.154-23.641,50.879-37.518,48.566
			c-13.875-2.312-28.395-42.186-31.393-60.918c-0.709-4.423-11.051-6.764-16.246-7.983c-6.152-1.444-14.289-2.791-14.289-2.791
			c-12.078-1.026-28.266,1.54-28.266,1.54c-32.121,2.313-31.758,7.767-31.758,7.767c10.535,3.341,7.602,36.43,7.602,36.43
			s1.447,37.623,0.164,58.951l-4.105,48.024l75.488,0.721c-2.316-44.886-1.137-107.694-1.137-107.694s15.529,49.449,43.281,50.476
			c27.752,1.028,52.822-64.866,52.822-64.866L716.6,295.461z"/>
		<path display="none" clip-path="url(#SVGID_60_)" fill="#FFBE91" d="M718.43,298.782c0,0-4.705-3.731-0.813-8.274
			c3.895-4.543,8.113-6.166,8.275-13.305c0,0,2.92-3.244,3.893,1.461c0.975,4.705-0.646,7.787-1.783,9.572
			c0,0,7.949-0.811,10.869-3.082c2.922-2.272,6.164-4.868,6.49-6.652c0.324-1.784,0.27-4.298,2.596-4.705
			c1.375-0.242,3.732,1.46,2.434,5.029c0,0,2.758,0.163,2.92,2.109c0,0,2.271,1.46,1.461,3.408c0,0-8.816,18.612-26.338,19.099
			C725.963,303.511,721.35,301.378,718.43,298.782"/>
		<g display="none" opacity="0.2" clip-path="url(#SVGID_60_)">
			<g>
				<defs>
					<rect id="SVGID_52_" x="624.086" y="433.268" width="9.507" height="206.025"/>
				</defs>
				<clipPath id="SVGID_65_" display="inline">
					<use xlink:href="#SVGID_52_"  display="none" overflow="visible"/>
				</clipPath>
			</g>
		</g>
		<g display="none" opacity="0.2" clip-path="url(#SVGID_60_)">
			<g>
				<defs>
					<rect id="SVGID_51_" x="562.615" y="433.268" width="8.65" height="202.025"/>
				</defs>
				<clipPath id="SVGID_66_" display="inline">
					<use xlink:href="#SVGID_51_"  display="none" overflow="visible"/>
				</clipPath>
			</g>
		</g>
		<g display="none" opacity="0.15" clip-path="url(#SVGID_60_)">
			<g>
				<defs>
					<rect id="SVGID_50_" x="560.791" y="394.889" width="13.908" height="30.292"/>
				</defs>
				<clipPath id="SVGID_67_" display="inline">
					<use xlink:href="#SVGID_50_"  display="none" overflow="visible"/>
				</clipPath>
			</g>
		</g>
		<path display="none" clip-path="url(#SVGID_60_)" fill="#3A505E" d="M557.152,281.554c0,0-28.846,69.868-30.131,89.654
			c0,0,20.244,58.208,28.467,68.488l18.103-12.887c0,0-22.616-51.551-23.386-52.579c-0.771-1.028-3.084-4.368,1.541-15.161
			c4.625-10.792,15.986-40.385,15.986-40.385s1.817-17.553-0.172-23.401C561.482,277.429,557.152,281.554,557.152,281.554"/>
		<g display="none" opacity="0.15" clip-path="url(#SVGID_60_)">
			<g>
				<defs>
					<rect id="SVGID_49_" x="555.488" y="426.558" width="17.906" height="13.138"/>
				</defs>
				<clipPath id="SVGID_68_" display="inline">
					<use xlink:href="#SVGID_49_"  display="none" overflow="visible"/>
				</clipPath>
			</g>
		</g>
		<path display="none" clip-path="url(#SVGID_60_)" fill="#FFBE91" d="M561.141,444.961c5.211-1.123,10.508-1.855,15.791-2.229
			c-1.588-3.201-2.645-7.066-2.645-7.066c1.994,0.848,4.592,1.006,7.031,0.395c4.771-1.191,0.822-4.176,0.822-4.176
			c-7.234,1.033-5.785-1.953-11.195-4.824c-3.289-1.746-9.391,3.641-11.807,5.887c-1.5,1.395-0.613,3.219-0.131,5.701
			C559.457,440.953,560.199,443.049,561.141,444.961"/>
		<g display="none" opacity="0.5" clip-path="url(#SVGID_60_)">
			<g>
				<defs>
					<rect id="SVGID_48_" x="585.443" y="382.118" width="33.666" height="9.667"/>
				</defs>
				<clipPath id="SVGID_69_" display="inline">
					<use xlink:href="#SVGID_48_"  display="none" overflow="visible"/>
				</clipPath>
				<path clip-path="url(#SVGID_69_)" fill="#293842" d="M585.443,391.785c0,0,2.206-0.333,5.516-0.831
					c1.653-0.241,3.572-0.581,5.626-0.938c2.053-0.367,4.238-0.769,6.405-1.248c2.171-0.459,4.32-1.004,6.31-1.588
					c0.991-0.303,1.952-0.593,2.842-0.921c0.896-0.315,1.726-0.658,2.473-1.01c0.746-0.355,1.42-0.702,1.992-1.053
					c0.296-0.163,0.549-0.348,0.785-0.517c0.24-0.165,0.457-0.323,0.632-0.49c0.183-0.158,0.346-0.3,0.488-0.424
					c0.128-0.138,0.236-0.256,0.326-0.351c0.177-0.193,0.271-0.296,0.271-0.296s-0.08,0.115-0.23,0.33
					c-0.143,0.222-0.37,0.536-0.723,0.883c-0.162,0.189-0.365,0.371-0.592,0.563c-0.224,0.198-0.465,0.414-0.748,0.61
					c-0.547,0.421-1.2,0.847-1.947,1.246c-1.488,0.807-3.302,1.606-5.304,2.269c-1.998,0.677-4.175,1.242-6.363,1.725
					c-2.194,0.464-4.401,0.854-6.479,1.14c-2.077,0.297-4.028,0.473-5.697,0.627c-1.67,0.152-3.069,0.193-4.045,0.242
					C586.004,391.789,585.443,391.785,585.443,391.785"/>
			</g>
		</g>
		<g display="none" opacity="0.5" clip-path="url(#SVGID_60_)">
			<g>
				<defs>
					<rect id="SVGID_47_" x="594.109" y="370.05" width="24.666" height="8.068"/>
				</defs>
				<clipPath id="SVGID_70_" display="inline">
					<use xlink:href="#SVGID_47_"  display="none" overflow="visible"/>
				</clipPath>
				<path clip-path="url(#SVGID_70_)" fill="#293842" d="M594.109,378.118c0,0,1.346-0.948,3.506-2.134
					c1.09-0.57,2.354-1.261,3.763-1.888c0.7-0.322,1.43-0.643,2.182-0.943c0.746-0.316,1.526-0.583,2.295-0.878
					c0.776-0.272,1.566-0.512,2.337-0.764c0.781-0.223,1.554-0.428,2.304-0.614c1.506-0.361,2.941-0.557,4.167-0.719
					c0.617-0.056,1.185-0.085,1.686-0.11c0.499-0.043,0.941,0.005,1.3,0.002c0.721,0.022,1.128,0.048,1.128,0.048
					s-0.406,0.053-1.118,0.147c-0.354,0.051-0.786,0.063-1.273,0.174c-0.488,0.096-1.036,0.202-1.637,0.295
					c-0.593,0.135-1.235,0.282-1.915,0.438c-0.672,0.184-1.38,0.377-2.113,0.577c-0.727,0.222-1.478,0.451-2.241,0.683
					c-0.755,0.259-1.522,0.522-2.29,0.785c-0.762,0.28-1.533,0.532-2.274,0.834c-0.745,0.292-1.486,0.558-2.19,0.852
					c-1.417,0.563-2.74,1.098-3.862,1.585C595.609,377.466,594.109,378.118,594.109,378.118"/>
			</g>
		</g>
		<g display="none" opacity="0.5" clip-path="url(#SVGID_60_)">
			<g>
				<defs>
					<rect id="SVGID_46_" x="586.775" y="359.989" width="26.334" height="5.796"/>
				</defs>
				<clipPath id="SVGID_71_" display="inline">
					<use xlink:href="#SVGID_46_"  display="none" overflow="visible"/>
				</clipPath>
				<path clip-path="url(#SVGID_71_)" fill="#293842" d="M586.775,365.785c0,0,0.355-0.237,1.012-0.599
					c0.657-0.354,1.594-0.874,2.769-1.393c1.176-0.511,2.552-1.114,4.078-1.623c0.757-0.272,1.557-0.5,2.366-0.743
					c0.817-0.213,1.649-0.429,2.486-0.621c0.848-0.149,1.686-0.35,2.526-0.453c0.839-0.113,1.663-0.237,2.472-0.274
					c0.806-0.053,1.583-0.115,2.324-0.079c0.74,0.029,1.438-0.007,2.08,0.073c0.644,0.054,1.23,0.125,1.748,0.19
					c0.517,0.079,0.961,0.192,1.328,0.262c0.732,0.157,1.145,0.26,1.145,0.26s-0.426-0.024-1.172-0.067
					c-0.372-0.021-0.818-0.075-1.334-0.085c-0.518,0.008-1.1,0.017-1.731,0.002c-0.631-0.027-1.317,0.064-2.038,0.094
					c-0.724,0.022-1.479,0.154-2.264,0.226c-0.786,0.06-1.586,0.241-2.406,0.352c-0.82,0.111-1.639,0.321-2.466,0.477
					c-0.823,0.175-1.643,0.376-2.448,0.575c-0.796,0.235-1.598,0.405-2.352,0.648c-1.521,0.442-2.937,0.881-4.135,1.307
					c-1.195,0.43-2.205,0.767-2.895,1.048C587.172,365.631,586.775,365.785,586.775,365.785"/>
			</g>
		</g>
		<g display="none" opacity="0.15" clip-path="url(#SVGID_60_)">
			<g>
				<defs>
					<rect id="SVGID_45_" x="586.873" y="272.092" width="33.699" height="19.267"/>
				</defs>
				<clipPath id="SVGID_72_" display="inline">
					<use xlink:href="#SVGID_45_"  display="none" overflow="visible"/>
				</clipPath>
			</g>
		</g>
		<path display="none" clip-path="url(#SVGID_60_)" fill="#D6996F" d="M589.094,258.328c0,0,0.354,14.352-0.709,17.363
			c-1.064,3.012,9.391,9.568,16.832,9.39c7.44-0.177,13.465-5.138,13.818-8.858c0.355-3.721-0.354-17.009,0-18.072
			C619.391,257.088,589.094,258.328,589.094,258.328"/>
		<path display="none" clip-path="url(#SVGID_60_)" fill="#FFBE91" d="M641.715,205.175c0,0,2.479-5.138,6.377-4.784
			c3.898,0.355,3.898,8.504,3.721,11.871c-0.176,3.367-5.695,14.254-10.807,8.504C638.17,217.577,641.715,205.175,641.715,205.175"
			/>
		<g display="none" opacity="0.15" clip-path="url(#SVGID_60_)">
			<g>
				<defs>
					<rect id="SVGID_44_" x="589.055" y="257.72" width="30.016" height="16.234"/>
				</defs>
				<clipPath id="SVGID_73_" display="inline">
					<use xlink:href="#SVGID_44_"  display="none" overflow="visible"/>
				</clipPath>
			</g>
		</g>
		<path display="none" clip-path="url(#SVGID_60_)" fill="#FFBE91" d="M557.555,209.663c0,0-5.492-5.492-7.617,1.949
			c-2.127,7.442,0.844,18.36,10.807,17.363C564.287,228.621,557.555,209.663,557.555,209.663"/>
		<path display="none" clip-path="url(#SVGID_60_)" fill="#FFBE91" d="M560.744,245.926c-0.033-7.692,0.354-19.312-2.658-30.651
			c-3.012-11.34-12.578-41.637,26.576-53.33c39.156-11.694,61.658,7.618,58.469,38.27c-3.189,30.651,0.107,27.245-0.176,36.321
			c-0.178,5.669-2.305,10.63-8.506,14.883c-8.922,6.117-26.576,15.236-30.297,15.236s-25.746-9.803-34.727-12.047
			C560.922,252.482,560.758,248.995,560.744,245.926"/>
		<path display="none" clip-path="url(#SVGID_60_)" fill="#534741" d="M572.006,216.548c-1.469-0.595-3.467-1.444-2.602-5.779
			c0.867-4.334,8.381-5.586,11.848-4.527c3.467,1.06,7.705,3.371,5.973,5.779C585.49,214.429,578.818,219.311,572.006,216.548"/>
		<path display="none" clip-path="url(#SVGID_60_)" fill="#F9F5E4" d="M572.006,217.267c-1.469-0.595-3.656-1.699-2.602-5.779
			c0.771-2.982,8.891-5.076,12.357-4.017c3.467,1.06,7.195,2.861,5.463,5.269C585.49,215.148,578.818,220.029,572.006,217.267"/>
		<g display="none" opacity="0.05" clip-path="url(#SVGID_60_)">
			<g>
				<defs>
					<rect id="SVGID_43_" x="553.146" y="148.19" width="92.235" height="108.937"/>
				</defs>
				<clipPath id="SVGID_74_" display="inline">
					<use xlink:href="#SVGID_43_"  display="none" overflow="visible"/>
				</clipPath>
			</g>
		</g>
		<path display="none" clip-path="url(#SVGID_60_)" fill="#534741" d="M610.424,213.184c0,0-3.082-2.504-1.734-5.586
			c1.35-3.082,7.031-4.913,11.463-4.816c4.43,0.096,7.803,4.238,4.527,7.994C621.404,214.533,613.41,215.977,610.424,213.184"/>
		<path display="none" clip-path="url(#SVGID_60_)" fill="#F9F5E4" d="M610.525,213.8c0,0-3.082-2.504-1.732-5.586
			c1.348-3.082,7.031-4.241,11.461-4.145c4.432,0.096,7.803,3.567,4.527,7.323C621.506,215.149,613.512,216.593,610.525,213.8"/>
		<path display="none" clip-path="url(#SVGID_60_)" fill="#332C28" d="M580.385,212.066c0,1.49-1.207,2.697-2.697,2.697
			c-1.488,0-2.697-1.207-2.697-2.697c0-1.49,1.209-2.697,2.697-2.697C579.178,209.369,580.385,210.576,580.385,212.066"/>
		<path display="none" clip-path="url(#SVGID_60_)" fill="#332C28" d="M619.002,209.562c0,1.49-1.207,2.697-2.697,2.697
			c-1.489,0-2.697-1.207-2.697-2.697s1.208-2.697,2.697-2.697C617.795,206.865,619.002,208.071,619.002,209.562"/>
		<path display="none" clip-path="url(#SVGID_60_)" fill="#534741" d="M565.064,203.205c0,0,2.375-1.828,6.934-4.045
			c3.564-1.734,8.092-2.505,10.5-2.023s6.646,3.37,5.297,4.141c-1.348,0.771-6.887-0.066-10.498,0.675
			c-3.758,0.77-6.936,1.637-8.959,2.311C566.418,204.904,564.486,205.035,565.064,203.205"/>
		<path display="none" clip-path="url(#SVGID_60_)" fill="#534741" d="M610.814,199.641c0,0-4.141,1.252-4.912-0.867
			c-0.77-2.119,1.541-3.082,5.684-3.178c4.141-0.097,13.869,1.637,15.604,3.564c1.734,1.926,1.156,1.637-0.193,1.83
			C625.648,201.182,619.58,198.292,610.814,199.641"/>
		<path display="none" clip-path="url(#SVGID_60_)" fill="#534741" d="M642.609,163.618c-6.668-6.167-5.5-13-5.5-13
			s-3.834,1.166-8,1.5c-4.168,0.333-9.334-4-14.5-6.5s-13,1.166-13,1.166c0-4.5,6.166-6,6.166-6
			c-10.834,1.5-12.334,6.5-14.334,7.667s-9.666-1.667-9.666-1.667c-2.334-0.5-1.834,2.334-7,2.334c-5.871,0-8.166,1.333-8.166,1.333
			c5.666,0,9,2.5,9,2.5c-6.834,0.167-8.168,7.333-8.168,7.333c-4.5-2.833-11.666-0.166-16,3.5
			c-4.332,3.667-5.832,14.834-5.832,14.834l8.666-6.334c-9.334,14.5-3,35.5-3,35.5c3.166,0.667,3,2,4.666,5.667
			c1.668,3.667,1.783,25.509,1.5,28.5c-0.346,3.67,0.93,9.924,7.168,13c5.729,2.825,34.5,12.5,38.332,12.667
			c3.834,0.167,20.813-9.991,28.668-14.334c8.412-4.651,9.666-9.833,9.834-12.166c0.166-2.333,0-33.667-0.168-35.834
			c-0.166-2.166,0.834-22.666,2.668-28C647.777,171.951,649.275,169.784,642.609,163.618 M631.109,229.451
			c-1.523,1.307-11.137,5.955-20.303,5.955c0,0-1.531,5.212-5.697,5.878c-4.168,0.667-8.375,0.088-9.834-0.5
			c-3.982-1.604-4.5-3.333-4.5-3.333s-9.814,0.614-13.148-0.053c-3.334-0.666-10.186-4.947-12.186-12.947s-4.5-15.333-4.5-15.333
			l-2.332-9.167c0.332-0.667,4-2.333,4.666-7.667c0.666-5.333,1-6.166,1-6.166s7.834-2.834,8.666-3.334
			c0.834-0.5,7.5-5.833,7.5-5.833l9.668-3c0,0-5.408,6.51-7.988,8.133c2.545-0.918,9.279-3.298,12.488-3.966l4-0.834
			c0,0,11-2.333,12.832-2.5c0,0,1-3.333-1.666-5.333c0,0,7,3.167,9.5,2.833c2.5-0.333,6.334-1.166,6.334-1.166l3.746-1.516
			l1.969-0.6l-3.049,11.116c0,0,4.668-5.834,5.668-6.167c0,0,0.498,20-1.834,22.333c0,0,4.166-3.666,4.166-5.166
			c0,0,1.168,15.333,0.668,19.333C636.943,210.451,635.883,225.353,631.109,229.451"/>
		<path display="none" clip-path="url(#SVGID_60_)" fill="#D6996F" d="M593.941,223.785c0,0-0.332,10.5-3.5,12.333
			c-3.166,1.834,4.668,7,11,6.167c6.334-0.833,9.834-3,9.5-6.5c-0.332-3.5-2.332-4.667-2.332-4.667s2.666,4.167,0.832,6.167
			c-1.832,2-5.166,3.667-8.5,4.167c-3.332,0.5-11-2.667-9.5-4.5C592.941,235.118,595.275,229.785,593.941,223.785"/>
		<path display="none" clip-path="url(#SVGID_60_)" fill="#FFFFFF" d="M589.828,249.176c0,0,20.127-1.692,28.797-6.492
			c0,0-0.77,10.43-12.699,11.704C593.998,255.662,589.828,249.176,589.828,249.176"/>
		<g display="none" opacity="0.3" clip-path="url(#SVGID_60_)">
			<g>
				<defs>
					<rect id="SVGID_42_" x="567.414" y="219.523" width="22.572" height="5.255"/>
				</defs>
				<clipPath id="SVGID_75_" display="inline">
					<use xlink:href="#SVGID_42_"  display="none" overflow="visible"/>
				</clipPath>
				<path clip-path="url(#SVGID_75_)" fill="#D6996F" d="M567.414,224.778c0,0,0.234-0.348,0.629-0.827
					c0.395-0.478,0.939-1.098,1.523-1.678c0.58-0.585,1.199-1.13,1.679-1.524s0.827-0.629,0.827-0.629s-0.234,0.348-0.628,0.827
					c-0.395,0.479-0.94,1.099-1.524,1.679c-0.58,0.584-1.2,1.129-1.679,1.523C567.762,224.543,567.414,224.778,567.414,224.778"/>
				<path clip-path="url(#SVGID_75_)" fill="#D6996F" d="M573.385,224.181c0,0,0.234-0.348,0.629-0.827s0.939-1.098,1.523-1.678
					c0.58-0.585,1.199-1.13,1.679-1.524s0.827-0.629,0.827-0.629s-0.234,0.348-0.628,0.827c-0.395,0.479-0.94,1.099-1.524,1.679
					c-0.58,0.584-1.2,1.129-1.679,1.524C573.732,223.946,573.385,224.181,573.385,224.181"/>
				<path clip-path="url(#SVGID_75_)" fill="#D6996F" d="M579.357,224.181c0,0,0.234-0.348,0.629-0.827s0.939-1.098,1.523-1.678
					c0.58-0.585,1.199-1.13,1.679-1.524s0.827-0.629,0.827-0.629s-0.234,0.348-0.628,0.827c-0.395,0.479-0.94,1.099-1.524,1.679
					c-0.58,0.584-1.2,1.129-1.679,1.524C579.705,223.946,579.357,224.181,579.357,224.181"/>
				<path clip-path="url(#SVGID_75_)" fill="#D6996F" d="M585.33,224.181c0,0,0.234-0.348,0.629-0.827s0.938-1.098,1.522-1.678
					c0.579-0.585,1.199-1.13,1.678-1.524c0.479-0.394,0.827-0.629,0.827-0.629s-0.234,0.348-0.628,0.827
					c-0.395,0.479-0.939,1.099-1.523,1.679c-0.58,0.584-1.2,1.129-1.679,1.523S585.33,224.181,585.33,224.181"/>
			</g>
		</g>
		<g display="none" opacity="0.3" clip-path="url(#SVGID_60_)">
			<g>
				<defs>
					<rect id="SVGID_41_" x="607.426" y="217.493" width="22.572" height="5.255"/>
				</defs>
				<clipPath id="SVGID_76_" display="inline">
					<use xlink:href="#SVGID_41_"  display="none" overflow="visible"/>
				</clipPath>
				<path clip-path="url(#SVGID_76_)" fill="#D6996F" d="M607.426,222.748c0,0,0.234-0.348,0.629-0.827
					c0.395-0.478,0.938-1.098,1.522-1.678c0.579-0.585,1.199-1.13,1.678-1.524c0.479-0.394,0.827-0.629,0.827-0.629
					s-0.234,0.348-0.628,0.827c-0.395,0.479-0.939,1.099-1.523,1.679c-0.58,0.584-1.2,1.129-1.679,1.523
					S607.426,222.748,607.426,222.748"/>
				<path clip-path="url(#SVGID_76_)" fill="#D6996F" d="M613.396,222.151c0,0,0.234-0.348,0.629-0.827
					c0.395-0.478,0.939-1.098,1.523-1.678c0.58-0.585,1.199-1.13,1.679-1.524s0.827-0.629,0.827-0.629s-0.234,0.348-0.628,0.827
					c-0.395,0.479-0.94,1.099-1.524,1.679c-0.58,0.584-1.2,1.129-1.679,1.524C613.744,221.916,613.396,222.151,613.396,222.151"/>
				<path clip-path="url(#SVGID_76_)" fill="#D6996F" d="M619.369,222.151c0,0,0.234-0.348,0.629-0.827
					c0.394-0.478,0.939-1.098,1.523-1.678c0.58-0.585,1.199-1.13,1.679-1.524s0.827-0.629,0.827-0.629s-0.234,0.348-0.628,0.827
					c-0.395,0.479-0.94,1.099-1.524,1.679c-0.58,0.584-1.2,1.129-1.679,1.524C619.717,221.916,619.369,222.151,619.369,222.151"/>
				<path clip-path="url(#SVGID_76_)" fill="#D6996F" d="M625.34,222.151c0,0,0.234-0.348,0.629-0.827
					c0.394-0.478,0.939-1.098,1.523-1.678c0.58-0.585,1.199-1.13,1.679-1.524s0.827-0.629,0.827-0.629s-0.234,0.348-0.628,0.827
					c-0.395,0.479-0.94,1.099-1.524,1.679c-0.58,0.584-1.2,1.129-1.679,1.524C625.688,221.916,625.34,222.151,625.34,222.151"/>
			</g>
		</g>
		<g opacity="0.1" clip-path="url(#SVGID_60_)">
			<g>
				<defs>
					<rect id="SVGID_40_" x="599.775" y="140.785" width="155.171" height="536.401"/>
				</defs>
				<clipPath id="SVGID_77_">
					<use xlink:href="#SVGID_40_"  display="none" overflow="visible"/>
				</clipPath>
			</g>
		</g>
		<g opacity="0.1" clip-path="url(#SVGID_60_)">
			<g>
				<defs>
					<rect id="SVGID_39_" x="302.652" y="641.969" width="170.293" height="43.803"/>
				</defs>
				<clipPath id="SVGID_78_">
					<use xlink:href="#SVGID_39_"  display="none" overflow="visible"/>
				</clipPath>
			</g>
		</g>
		<path display="none" clip-path="url(#SVGID_60_)" fill="#534741" d="M415.717,631.201c0,0-0.166,11-1.834,17.834
			c0,0,0.168,3.332,8.334,4.832c8.168,1.5,14.168,7.5,17.168,12.668c3,5.166,27,3.832,27.5,3.5c0,0-11.5-15.334-18.668-22.334
			c-7.166-7-16.498-15.334-17.832-15.666C429.051,631.701,415.717,631.201,415.717,631.201"/>
		<g display="none" opacity="0.15" clip-path="url(#SVGID_60_)">
			<g>
				<defs>
					<rect id="SVGID_38_" x="415.34" y="631.201" width="22.902" height="7.497"/>
				</defs>
				<clipPath id="SVGID_79_" display="inline">
					<use xlink:href="#SVGID_38_"  display="none" overflow="visible"/>
				</clipPath>
			</g>
		</g>
		
			<path display="none" clip-path="url(#SVGID_60_)" fill="none" stroke="#3D3530" stroke-linecap="round" stroke-linejoin="round" stroke-miterlimit="10" d="
			M435.162,634.814c0,0-8.67,6.687-7.715,12.709c0.955,6.025,5.732,3.234,5.07,0.221
			C431.855,644.732,433.766,636.504,435.162,634.814z"/>
		
			<path display="none" clip-path="url(#SVGID_60_)" fill="none" stroke="#3D3530" stroke-linecap="round" stroke-linejoin="round" stroke-miterlimit="10" d="
			M435.529,635.033c0,0,3.746,11.314,0,16.678"/>
		<path display="none" clip-path="url(#SVGID_60_)" fill="#534741" d="M367.967,638.285v18.5c0,2.375-22,0.75-35,10.5
			c0,0-16.5-3.25-20.25-4.75c0,0,5.25-10.75,13-12.75s24.25-7,25-12L367.967,638.285z"/>
		<g display="none" opacity="0.15" clip-path="url(#SVGID_60_)">
			<g>
				<defs>
					<rect id="SVGID_37_" x="347.52" y="637.785" width="20.447" height="6.387"/>
				</defs>
				<clipPath id="SVGID_80_" display="inline">
					<use xlink:href="#SVGID_37_"  display="none" overflow="visible"/>
				</clipPath>
			</g>
		</g>
		
			<path display="none" clip-path="url(#SVGID_60_)" fill="none" stroke="#3D3530" stroke-linecap="round" stroke-linejoin="round" stroke-miterlimit="10" d="
			M345.91,642.605c0,0-12.731,12.027-6.699,15.582C343.573,660.758,346.534,643.385,345.91,642.605z"/>
		
			<path display="none" clip-path="url(#SVGID_60_)" fill="none" stroke="#3D3530" stroke-linecap="round" stroke-linejoin="round" stroke-miterlimit="10" d="
			M346.533,642.217c0,0,4.207,5.219,2.338,11.451"/>
		<path display="none" clip-path="url(#SVGID_60_)" fill="#293842" d="M428.006,412.813c0.266,5.16,0.588,10.168,0.975,14.916
			c2.986,36.666,5.242,126.967,2.514,204.684c0,0-10.609-0.377-16.189-0.598c0.451-79.264-2.566-178.67-24.899-177.111
			c-8.216,0.574-15.954,26.475-19.295,82.75c-3.339,56.275-2.826,101.764-2.826,101.764l-18.635-0.35
			c3.676-163.391,1.115-171.27,2.067-211.332l1.516-15.445L428.006,412.813z"/>
		<g display="none" opacity="0.15" clip-path="url(#SVGID_60_)">
			<g>
				<defs>
					<rect id="SVGID_36_" x="351.989" y="412.09" width="76.763" height="12.668"/>
				</defs>
				<clipPath id="SVGID_81_" display="inline">
					<use xlink:href="#SVGID_36_"  display="none" overflow="visible"/>
				</clipPath>
			</g>
		</g>
		<path display="none" clip-path="url(#SVGID_60_)" fill="#3A505E" d="M431.584,312.324c0,0,0.486,1.549,1.438,4.096l7.154-44.654
			c-0.887-0.701-3.744-1.458-5.17-1.793c-6.152-1.444-25.41-4.388-25.41-4.388c-12.079-1.026-28.267,1.54-28.267,1.54
			c-32.12,2.313-31.757,7.767-31.757,7.767c10.535,3.341,7.602,36.431,7.602,36.431s1.447,37.623,0.163,58.95l-4.105,48.024
			l75.489,0.721C426.404,374.133,431.584,312.324,431.584,312.324"/>
		<g display="none" opacity="0.15" clip-path="url(#SVGID_60_)">
			<g>
				<defs>
					<rect id="SVGID_35_" x="405.631" y="387.097" width="23.09" height="31.92"/>
				</defs>
				<clipPath id="SVGID_82_" display="inline">
					<use xlink:href="#SVGID_35_"  display="none" overflow="visible"/>
				</clipPath>
			</g>
		</g>
		<g display="none" opacity="0.2" clip-path="url(#SVGID_60_)">
			<g>
				<defs>
					<rect id="SVGID_34_" x="416.527" y="426.518" width="9.507" height="206.025"/>
				</defs>
				<clipPath id="SVGID_83_" display="inline">
					<use xlink:href="#SVGID_34_"  display="none" overflow="visible"/>
				</clipPath>
			</g>
		</g>
		<g display="none" opacity="0.2" clip-path="url(#SVGID_60_)">
			<g>
				<defs>
					<rect id="SVGID_33_" x="357.595" y="426.518" width="6.112" height="210.025"/>
				</defs>
				<clipPath id="SVGID_84_" display="inline">
					<use xlink:href="#SVGID_33_"  display="none" overflow="visible"/>
				</clipPath>
			</g>
		</g>
		<g display="none" opacity="0.15" clip-path="url(#SVGID_60_)">
			<g>
				<defs>
					<rect id="SVGID_32_" x="353.232" y="388.139" width="13.909" height="30.292"/>
				</defs>
				<clipPath id="SVGID_85_" display="inline">
					<use xlink:href="#SVGID_32_"  display="none" overflow="visible"/>
				</clipPath>
			</g>
		</g>
		<path display="none" clip-path="url(#SVGID_60_)" fill="#3A505E" d="M349.594,274.804c0,0-28.846,69.868-30.131,89.654
			c0,0,20.243,58.208,28.466,68.488l18.104-12.887c0,0-22.617-51.551-23.387-52.579c-0.771-1.028-3.084-4.368,1.542-15.161
			c4.625-10.792,15.986-40.385,15.986-40.385s1.818-17.553-0.172-23.401C353.924,270.679,349.594,274.804,349.594,274.804"/>
		<g display="none" opacity="0.15" clip-path="url(#SVGID_60_)">
			<g>
				<defs>
					<rect id="SVGID_31_" x="347.929" y="419.808" width="17.907" height="13.138"/>
				</defs>
				<clipPath id="SVGID_86_" display="inline">
					<use xlink:href="#SVGID_31_"  display="none" overflow="visible"/>
				</clipPath>
			</g>
		</g>
		<path display="none" clip-path="url(#SVGID_60_)" fill="#FFBE91" d="M353.582,438.211c5.21-1.123,10.508-1.855,15.791-2.229
			c-1.588-3.201-2.645-7.066-2.645-7.066c1.995,0.848,4.591,1.006,7.032,0.395c4.771-1.191,0.822-4.176,0.822-4.176
			c-7.234,1.033-5.786-1.953-11.195-4.824c-3.289-1.746-9.392,3.641-11.807,5.887c-1.501,1.395-0.613,3.219-0.131,5.701
			C351.898,434.203,352.641,436.299,353.582,438.211"/>
		<path display="none" clip-path="url(#SVGID_60_)" fill="#3A505E" d="M440.186,271.785c0,0,23.752,67.221,25.037,87.007
			c0,0-20.242,58.208-28.465,68.487l-18.105-12.887c0,0,22.617-51.552,23.388-52.58c0.771-1.028,3.084-4.368-1.543-15.16
			c-3.743-8.736-3.748-8.502-15.985-40.385c0,0-2.076-17.648,0.172-23.401C429.975,269.326,440.186,271.785,440.186,271.785"/>
		<g display="none" opacity="0.15" clip-path="url(#SVGID_60_)">
			<g>
				<defs>
					<rect id="SVGID_30_" x="419.684" y="415.127" width="17.086" height="12.152"/>
				</defs>
				<clipPath id="SVGID_87_" display="inline">
					<use xlink:href="#SVGID_30_"  display="none" overflow="visible"/>
				</clipPath>
			</g>
		</g>
		<path display="none" clip-path="url(#SVGID_60_)" fill="#FFBE91" d="M428.377,434.803c-4.734-2.445-9.656-4.537-14.66-6.277
			c2.371-2.676,4.4-6.131,4.4-6.131c-2.146,0.297-4.693-0.229-6.891-1.457c-4.293-2.396,0.299-4.244,0.299-4.244
			c6.148,2.17,5.297,0.35,11.268-1.008c4.232,0.033,9.564,4.766,11.309,7.564c1.084,1.739-0.9,3.746-2.016,6.016
			C431.051,431.373,429.787,433.203,428.377,434.803"/>
		<g display="none" opacity="0.5" clip-path="url(#SVGID_60_)">
			<g>
				<defs>
					<rect id="SVGID_29_" x="377.884" y="375.368" width="33.667" height="9.667"/>
				</defs>
				<clipPath id="SVGID_88_" display="inline">
					<use xlink:href="#SVGID_29_"  display="none" overflow="visible"/>
				</clipPath>
				<path clip-path="url(#SVGID_88_)" fill="#293842" d="M377.884,385.035c0,0,2.206-0.332,5.516-0.831
					c1.653-0.241,3.573-0.581,5.627-0.938c2.051-0.367,4.237-0.769,6.404-1.248c2.17-0.459,4.321-1.004,6.312-1.588
					c0.99-0.303,1.951-0.593,2.842-0.921c0.895-0.315,1.725-0.658,2.473-1.01c0.746-0.355,1.42-0.702,1.992-1.053
					c0.295-0.163,0.549-0.348,0.785-0.517c0.24-0.165,0.457-0.323,0.631-0.49c0.184-0.158,0.346-0.3,0.488-0.424
					c0.129-0.138,0.236-0.256,0.326-0.351c0.178-0.193,0.271-0.296,0.271-0.296s-0.08,0.115-0.23,0.33
					c-0.143,0.222-0.369,0.536-0.723,0.883c-0.162,0.189-0.365,0.371-0.592,0.563c-0.223,0.198-0.465,0.414-0.748,0.61
					c-0.547,0.421-1.199,0.847-1.947,1.246c-1.488,0.807-3.301,1.606-5.303,2.269c-2,0.677-4.176,1.242-6.365,1.725
					c-2.195,0.464-4.401,0.854-6.48,1.14c-2.077,0.297-4.028,0.473-5.697,0.627c-1.67,0.152-3.069,0.193-4.045,0.242
					C378.444,385.039,377.884,385.035,377.884,385.035"/>
			</g>
		</g>
		<g display="none" opacity="0.5" clip-path="url(#SVGID_60_)">
			<g>
				<defs>
					<rect id="SVGID_28_" x="386.551" y="363.3" width="24.666" height="8.068"/>
				</defs>
				<clipPath id="SVGID_89_" display="inline">
					<use xlink:href="#SVGID_28_"  display="none" overflow="visible"/>
				</clipPath>
				<path clip-path="url(#SVGID_89_)" fill="#293842" d="M386.551,371.368c0,0,1.346-0.948,3.506-2.134
					c1.09-0.57,2.353-1.262,3.763-1.888c0.7-0.322,1.429-0.643,2.181-0.943c0.747-0.316,1.526-0.583,2.296-0.879
					c0.777-0.271,1.566-0.511,2.336-0.763c0.781-0.223,1.555-0.428,2.305-0.614c1.506-0.362,2.941-0.557,4.166-0.719
					c0.617-0.056,1.186-0.085,1.686-0.11c0.5-0.043,0.941,0.005,1.301,0.003c0.721,0.021,1.127,0.047,1.127,0.047
					s-0.406,0.053-1.117,0.147c-0.355,0.051-0.787,0.063-1.273,0.174c-0.488,0.096-1.037,0.202-1.637,0.295
					c-0.594,0.135-1.236,0.282-1.916,0.438c-0.672,0.184-1.379,0.377-2.113,0.577c-0.727,0.222-1.477,0.451-2.24,0.683
					c-0.756,0.259-1.524,0.522-2.291,0.785c-0.762,0.28-1.534,0.532-2.274,0.834c-0.745,0.292-1.487,0.557-2.191,0.852
					c-1.417,0.563-2.74,1.097-3.862,1.585C388.051,370.716,386.551,371.368,386.551,371.368"/>
			</g>
		</g>
		<g display="none" opacity="0.5" clip-path="url(#SVGID_60_)">
			<g>
				<defs>
					<rect id="SVGID_27_" x="379.217" y="353.239" width="26.334" height="5.796"/>
				</defs>
				<clipPath id="SVGID_90_" display="inline">
					<use xlink:href="#SVGID_27_"  display="none" overflow="visible"/>
				</clipPath>
				<path clip-path="url(#SVGID_90_)" fill="#293842" d="M379.217,359.035c0,0,0.356-0.237,1.011-0.599
					c0.658-0.354,1.595-0.874,2.77-1.393c1.175-0.511,2.551-1.114,4.077-1.623c0.757-0.272,1.557-0.5,2.367-0.743
					c0.817-0.213,1.649-0.429,2.486-0.621c0.848-0.149,1.685-0.35,2.526-0.453c0.84-0.113,1.663-0.237,2.471-0.274
					c0.807-0.054,1.584-0.115,2.325-0.079c0.74,0.029,1.437-0.007,2.082,0.073c0.643,0.054,1.229,0.125,1.746,0.19
					c0.518,0.079,0.961,0.192,1.328,0.262c0.732,0.157,1.145,0.26,1.145,0.26s-0.426-0.024-1.172-0.067
					c-0.371-0.021-0.818-0.075-1.334-0.085c-0.518,0.008-1.1,0.017-1.73,0.002c-0.632-0.027-1.319,0.064-2.04,0.094
					c-0.723,0.022-1.478,0.154-2.264,0.226c-0.785,0.06-1.585,0.241-2.405,0.352c-0.821,0.111-1.639,0.321-2.466,0.477
					c-0.823,0.176-1.643,0.376-2.448,0.575c-0.796,0.235-1.598,0.405-2.352,0.648c-1.52,0.442-2.936,0.881-4.134,1.307
					c-1.196,0.43-2.206,0.767-2.895,1.048C379.614,358.881,379.217,359.035,379.217,359.035"/>
			</g>
		</g>
		<g display="none" opacity="0.15" clip-path="url(#SVGID_60_)">
			<g>
				<defs>
					<rect id="SVGID_26_" x="379.314" y="265.342" width="33.7" height="19.267"/>
				</defs>
				<clipPath id="SVGID_91_" display="inline">
					<use xlink:href="#SVGID_26_"  display="none" overflow="visible"/>
				</clipPath>
			</g>
		</g>
		<path display="none" clip-path="url(#SVGID_60_)" fill="#D6996F" d="M381.534,251.578c0,0,0.354,14.352-0.709,17.363
			c-1.063,3.012,9.391,9.568,16.833,9.39c7.441-0.177,13.465-5.138,13.818-8.858c0.355-3.721-0.354-17.009,0-18.072
			C411.832,250.338,381.534,251.578,381.534,251.578"/>
		<g display="none" opacity="0.15" clip-path="url(#SVGID_60_)">
			<g>
				<defs>
					<rect id="SVGID_25_" x="381.496" y="250.97" width="30.016" height="16.234"/>
				</defs>
				<clipPath id="SVGID_92_" display="inline">
					<use xlink:href="#SVGID_25_"  display="none" overflow="visible"/>
				</clipPath>
			</g>
		</g>
		<path display="none" clip-path="url(#SVGID_60_)" fill="#FFBE91" d="M438.74,203.864c0,0,2.957-4.879,6.803-4.155
			c3.848,0.724,3.07,8.837,2.574,12.171c-0.496,3.335-7.027,13.647-11.568,7.437C434.031,215.874,438.74,203.864,438.74,203.864"/>
		<path display="none" clip-path="url(#SVGID_60_)" fill="#FFBE91" d="M354.659,200.242c0,0-4.944-5.99-7.769,1.215
			c-2.825,7.205-0.907,18.357,9.105,18.313C359.556,219.755,354.659,200.242,354.659,200.242"/>
		<path display="none" clip-path="url(#SVGID_60_)" fill="#FFBE91" d="M354.257,236.72c0.699-7.66,2.192-19.19,0.272-30.765
			c-1.918-11.575-8.557-42.645,31.533-50.558c40.092-7.912,60.652,13.455,54.561,43.663c-6.094,30.209-2.488,27.133-3.635,36.14
			c-0.717,5.627-3.305,10.363-9.883,14.005c-9.465,5.241-27.907,12.638-31.611,12.284c-3.704-0.355-24.696-12.211-33.422-15.3
			C353.81,243.263,353.979,239.777,354.257,236.72"/>
		<path display="none" clip-path="url(#SVGID_60_)" fill="#534741" d="M368.265,208.549c-1.405-0.733-3.314-1.768-2.039-6
			s8.874-4.764,12.225-3.379c3.35,1.385,7.348,4.089,5.394,6.321C381.89,207.723,374.783,211.947,368.265,208.549"/>
		<path display="none" clip-path="url(#SVGID_60_)" fill="#F9F5E4" d="M368.196,209.264c-1.405-0.733-3.478-2.04-2.039-6
			c1.052-2.896,9.333-4.208,12.683-2.822c3.351,1.384,6.89,3.532,4.936,5.764C381.821,208.438,374.714,212.662,368.196,209.264"/>
		<g display="none" opacity="0.05" clip-path="url(#SVGID_60_)">
			<g>
				<defs>
					<rect id="SVGID_24_" x="351.071" y="143.865" width="93.975" height="108.117"/>
				</defs>
				<clipPath id="SVGID_93_" display="inline">
					<use xlink:href="#SVGID_24_"  display="none" overflow="visible"/>
				</clipPath>
			</g>
		</g>
		<path display="none" clip-path="url(#SVGID_60_)" fill="#534741" d="M406.828,208.857c0,0-2.83-2.787-1.193-5.726
			c1.635-2.94,7.467-4.22,11.867-3.703c4.402,0.517,7.365,4.962,3.746,8.389C417.631,211.246,409.535,211.921,406.828,208.857"/>
		<path display="none" clip-path="url(#SVGID_60_)" fill="#F9F5E4" d="M406.871,209.48c0,0-2.83-2.786-1.193-5.726
			s7.402-3.552,11.805-3.034c4.4,0.517,7.428,4.293,3.809,7.72C417.674,211.868,409.578,212.545,406.871,209.48"/>
		<path display="none" clip-path="url(#SVGID_60_)" fill="#332C28" d="M378.032,204.884c-0.141,1.483-1.458,2.57-2.941,2.428
			c-1.483-0.141-2.571-1.459-2.429-2.942c0.142-1.483,1.459-2.569,2.942-2.428C377.088,202.084,378.174,203.401,378.032,204.884"/>
		<path display="none" clip-path="url(#SVGID_60_)" fill="#332C28" d="M416.713,206.068c-0.143,1.483-1.459,2.57-2.941,2.428
			c-1.484-0.141-2.57-1.458-2.428-2.941c0.141-1.483,1.457-2.57,2.941-2.428C415.768,203.269,416.855,204.585,416.713,206.068"/>
		<path display="none" clip-path="url(#SVGID_60_)" fill="#534741" d="M362.625,194.604c0,0,2.538-1.593,7.287-3.367
			c3.714-1.386,8.293-1.723,10.644-1.014c2.352,0.709,6.295,3.989,4.88,4.628c-1.416,0.639-6.851-0.722-10.516-0.329
			c-3.813,0.41-7.059,0.97-9.137,1.448C363.812,196.424,361.875,196.373,362.625,194.604"/>
		<path display="none" clip-path="url(#SVGID_60_)" fill="#534741" d="M408.508,195.413c0,0-4.242,0.853-4.809-1.33
			c-0.564-2.183,1.828-2.922,5.961-2.624c4.131,0.299,13.65,2.951,15.191,5.034c1.545,2.083,0.996,1.74-0.363,1.803
			C423.125,198.359,417.361,194.905,408.508,195.413"/>
		<path display="none" clip-path="url(#SVGID_60_)" fill="#534741" d="M443.586,162.581c-6.049-6.773-4.238-13.464-4.238-13.464
			s-3.924,0.796-8.105,0.731c-4.18-0.065-8.908-4.87-13.814-7.851c-4.904-2.98-13.051-0.077-13.051-0.077
			c0.428-4.48,6.709-5.385,6.709-5.385c-10.928,0.461-12.897,5.296-14.999,6.267c-2.103,0.97-9.464-2.579-9.464-2.579
			c-2.275-0.721-2.047,2.148-7.19,1.656c-5.845-0.559-8.256,0.549-8.256,0.549c5.64,0.54,8.721,3.346,8.721,3.346
			c-6.819-0.485-8.829,6.522-8.829,6.522c-4.21-3.249-11.597-1.276-16.261,1.961c-4.662,3.237-7.217,14.211-7.217,14.211l9.229-5.48
			c-10.672,13.545-6.366,35.053-6.366,35.053c3.088,0.965,2.796,2.276,4.105,6.085c1.311,3.809-0.654,25.563-1.22,28.514
			c-0.694,3.62-0.021,9.967,5.897,13.623c5.434,3.358,33.154,15.728,36.952,16.259c3.8,0.531,21.669-7.963,29.902-11.539
			c8.818-3.83,10.561-8.868,10.947-11.174c0.389-2.307,3.205-33.515,3.246-35.687c0.039-2.173,2.988-22.484,5.32-27.619
			C447.938,171.369,449.635,169.354,443.586,162.581 M425.871,227.02c-1.641,1.156-11.652,4.868-20.777,3.995
			c0,0-2.02,5.043-6.23,5.309c-4.213,0.267-8.346-0.71-9.742-1.434c-3.813-1.976-4.162-3.746-4.162-3.746s-9.829-0.324-13.084-1.305
			c-3.255-0.981-9.668-5.894-10.897-14.048c-1.23-8.154-3.02-15.693-3.02-15.693l-1.449-9.347c0.394-0.632,4.204-1.941,5.375-7.187
			c1.171-5.246,1.583-6.044,1.583-6.044s8.067-2.074,8.944-2.493c0.877-0.418,8.021-5.093,8.021-5.093l9.91-2.065
			c0,0-6.004,5.965-8.727,7.335c2.621-0.671,9.552-2.399,12.81-2.759l4.061-0.449c0,0,11.172-1.275,13.012-1.267
			c0,0,1.313-3.223-1.15-5.468c0,0,6.666,3.819,9.188,3.725c2.52-0.093,6.414-0.557,6.414-0.557l3.875-1.153l2.018-0.409
			l-4.096,10.775c0,0,5.203-5.364,6.23-5.6c0,0-1.408,19.957-3.953,22.058c0,0,4.498-3.253,4.641-4.747
			c0,0-0.299,15.375-1.178,19.309C433.486,208.662,431.014,223.395,425.871,227.02"/>
		<path display="none" clip-path="url(#SVGID_60_)" fill="#D6996F" d="M389.412,217.841c0,0-1.332,10.421-4.659,11.944
			c-3.326,1.523,3.979,7.412,10.363,7.185c6.384-0.226,10.075-2.049,10.075-5.565c0.004-3.516-1.877-4.868-1.877-4.868
			s2.258,4.402,0.242,6.218c-2.014,1.817-5.493,3.158-8.859,3.338c-3.364,0.181-10.696-3.702-9.028-5.384
			C387.337,229.028,390.168,223.941,389.412,217.841"/>
		<path display="none" clip-path="url(#SVGID_60_)" fill="#FFFFFF" d="M391.021,247.514c0,0,0.018-0.074,0.049-0.211
			c0.052-0.132,0.031-0.354,0.195-0.581c0.127-0.243,0.3-0.545,0.563-0.813c0.234-0.312,0.575-0.566,0.937-0.868
			c0.385-0.25,0.794-0.565,1.277-0.785c0.467-0.256,0.979-0.479,1.524-0.677c0.542-0.198,1.113-0.379,1.701-0.524
			c0.591-0.128,1.191-0.269,1.801-0.343c0.609-0.096,1.221-0.126,1.825-0.164c0.603-0.048,1.199,0.011,1.771,0.01
			c0.575,0.044,1.128,0.105,1.648,0.177c0.518,0.094,1.005,0.191,1.451,0.292c0.441,0.125,0.842,0.253,1.194,0.368
			c0.354,0.102,0.645,0.257,0.892,0.35c0.488,0.208,0.76,0.339,0.76,0.339s-0.302-0.048-0.816-0.153
			c-0.26-0.046-0.562-0.14-0.927-0.175c-0.362-0.044-0.769-0.094-1.205-0.164c-0.441-0.035-0.921-0.075-1.428-0.115
			c-0.506-0.013-1.039-0.026-1.591-0.038c-1.102,0.038-2.276,0.071-3.437,0.263c-0.583,0.058-1.155,0.183-1.722,0.293
			c-0.559,0.134-1.116,0.253-1.637,0.417c-0.523,0.166-1.03,0.321-1.49,0.519c-0.476,0.168-0.881,0.406-1.282,0.591
			c-0.358,0.238-0.73,0.417-0.989,0.653c-0.298,0.21-0.485,0.436-0.647,0.631c-0.187,0.178-0.239,0.401-0.318,0.516
			C391.055,247.447,391.021,247.514,391.021,247.514"/>
		<g display="none" opacity="0.3" clip-path="url(#SVGID_60_)">
			<g>
				<defs>
					<rect id="SVGID_23_" x="362.911" y="212.085" width="22.969" height="5.331"/>
				</defs>
				<clipPath id="SVGID_94_" display="inline">
					<use xlink:href="#SVGID_23_"  display="none" overflow="visible"/>
				</clipPath>
				<path clip-path="url(#SVGID_94_)" fill="#D6996F" d="M362.911,216.304c0,0,0.267-0.324,0.705-0.763
					c0.438-0.439,1.039-1.004,1.676-1.526c0.633-0.526,1.301-1.01,1.815-1.357c0.515-0.347,0.884-0.547,0.884-0.547
					s-0.267,0.324-0.705,0.764c-0.437,0.438-1.04,1.003-1.676,1.525c-0.633,0.527-1.303,1.009-1.816,1.357
					C363.279,216.103,362.911,216.304,362.911,216.304"/>
				<path clip-path="url(#SVGID_94_)" fill="#D6996F" d="M368.911,216.278c0,0,0.267-0.324,0.705-0.763
					c0.439-0.439,1.04-1.004,1.676-1.526c0.634-0.526,1.302-1.01,1.817-1.357c0.514-0.347,0.883-0.547,0.883-0.547
					s-0.266,0.324-0.705,0.764c-0.438,0.439-1.04,1.003-1.676,1.525c-0.634,0.527-1.303,1.009-1.817,1.357
					C369.279,216.077,368.911,216.278,368.911,216.278"/>
				<path clip-path="url(#SVGID_94_)" fill="#D6996F" d="M374.856,216.847c0,0,0.267-0.324,0.705-0.763
					c0.439-0.439,1.039-1.005,1.676-1.527c0.634-0.526,1.302-1.01,1.816-1.356c0.515-0.347,0.884-0.547,0.884-0.547
					s-0.267,0.324-0.705,0.763c-0.438,0.44-1.04,1.004-1.677,1.526c-0.633,0.527-1.302,1.009-1.816,1.357
					C375.225,216.646,374.856,216.847,374.856,216.847"/>
				<path clip-path="url(#SVGID_94_)" fill="#D6996F" d="M380.801,217.416c0,0,0.267-0.324,0.704-0.763
					c0.439-0.439,1.04-1.005,1.676-1.527c0.633-0.526,1.301-1.01,1.816-1.356c0.514-0.347,0.883-0.547,0.883-0.547
					s-0.267,0.324-0.704,0.763c-0.438,0.44-1.04,1.004-1.677,1.526c-0.633,0.527-1.302,1.009-1.815,1.357
					C381.169,217.214,380.801,217.416,380.801,217.416"/>
			</g>
		</g>
		<g display="none" opacity="0.3" clip-path="url(#SVGID_60_)">
			<g>
				<defs>
					<rect id="SVGID_22_" x="402.934" y="213.874" width="22.971" height="5.33"/>
				</defs>
				<clipPath id="SVGID_95_" display="inline">
					<use xlink:href="#SVGID_22_"  display="none" overflow="visible"/>
				</clipPath>
				<path clip-path="url(#SVGID_95_)" fill="#D6996F" d="M402.934,218.093c0,0,0.266-0.324,0.703-0.763
					c0.439-0.439,1.041-1.005,1.678-1.527c0.633-0.526,1.301-1.01,1.814-1.357s0.883-0.547,0.883-0.547s-0.267,0.324-0.703,0.764
					c-0.439,0.439-1.041,1.004-1.678,1.526c-0.633,0.526-1.301,1.009-1.814,1.357C403.301,217.892,402.934,218.093,402.934,218.093"
					/>
				<path clip-path="url(#SVGID_95_)" fill="#D6996F" d="M408.934,218.066c0,0,0.268-0.324,0.705-0.763
					c0.439-0.439,1.039-1.004,1.678-1.526c0.633-0.526,1.301-1.01,1.814-1.357c0.516-0.347,0.885-0.547,0.885-0.547
					s-0.268,0.324-0.705,0.764c-0.438,0.438-1.039,1.003-1.678,1.525c-0.633,0.527-1.301,1.009-1.816,1.357
					C409.303,217.865,408.934,218.066,408.934,218.066"/>
				<path clip-path="url(#SVGID_95_)" fill="#D6996F" d="M414.881,218.635c0,0,0.266-0.324,0.703-0.763
					c0.439-0.439,1.041-1.004,1.678-1.526c0.633-0.526,1.301-1.01,1.814-1.357c0.514-0.347,0.883-0.547,0.883-0.547
					s-0.266,0.324-0.703,0.764c-0.439,0.439-1.041,1.003-1.678,1.525c-0.633,0.527-1.301,1.009-1.814,1.357
					C415.248,218.435,414.881,218.635,414.881,218.635"/>
				<path clip-path="url(#SVGID_95_)" fill="#D6996F" d="M420.822,219.204c0,0,0.268-0.324,0.705-0.763
					c0.439-0.439,1.041-1.004,1.678-1.526c0.633-0.526,1.301-1.01,1.816-1.357c0.514-0.347,0.883-0.547,0.883-0.547
					s-0.266,0.324-0.703,0.764c-0.439,0.439-1.041,1.003-1.678,1.525c-0.635,0.527-1.303,1.009-1.818,1.357
					C421.191,219.002,420.822,219.204,420.822,219.204"/>
			</g>
		</g>
		<g display="none" opacity="0.1" clip-path="url(#SVGID_60_)">
			<g>
				<defs>
					<rect id="SVGID_21_" x="392.884" y="136.535" width="74.001" height="533.901"/>
				</defs>
				<clipPath id="SVGID_96_" display="inline">
					<use xlink:href="#SVGID_21_"  display="none" overflow="visible"/>
				</clipPath>
			</g>
		</g>
		<g opacity="0.1" clip-path="url(#SVGID_60_)">
			<g>
				<defs>
					<rect id="SVGID_20_" x="80.07" y="638.469" width="170.293" height="43.803"/>
				</defs>
				<clipPath id="SVGID_97_">
					<use xlink:href="#SVGID_20_"  overflow="visible"/>
				</clipPath>
			</g>
		</g>
		<path clip-path="url(#SVGID_60_)" fill="#534741" d="M197.162,634.701c0,0-0.167,11-1.834,17.834c0,0,0.167,3.332,8.334,4.832
			s14.167,7.5,17.167,12.668c3,5.166,27,3.832,27.5,3.5c0,0-11.5-15.334-18.667-22.334s-16.499-15.334-17.833-15.666
			C210.495,635.201,197.162,634.701,197.162,634.701"/>
		<g opacity="0.15" clip-path="url(#SVGID_60_)">
			<g>
				<defs>
					<rect id="SVGID_19_" x="196.785" y="634.701" width="22.902" height="7.497"/>
				</defs>
				<clipPath id="SVGID_98_">
					<use xlink:href="#SVGID_19_"  overflow="visible"/>
				</clipPath>
			</g>
		</g>
		
			<path clip-path="url(#SVGID_60_)" fill="none" stroke="#3D3530" stroke-linecap="round" stroke-linejoin="round" stroke-miterlimit="10" d="
			M216.606,638.314c0,0-8.67,6.687-7.715,12.709c0.955,6.025,5.733,3.234,5.07,0.221
			C213.299,648.232,215.21,640.004,216.606,638.314z"/>
		
			<path clip-path="url(#SVGID_60_)" fill="none" stroke="#3D3530" stroke-linecap="round" stroke-linejoin="round" stroke-miterlimit="10" d="
			M216.974,638.533c0,0,3.747,11.314,0,16.678"/>
		<path clip-path="url(#SVGID_60_)" fill="#534741" d="M145.412,633.785v18.5c0,2.375-22,0.75-35,10.5c0,0-16.5-3.25-20.25-4.75
			c0,0,5.25-10.75,13-12.75s24.25-7,25-12L145.412,633.785z"/>
		<g opacity="0.15" clip-path="url(#SVGID_60_)">
			<g>
				<defs>
					<rect id="SVGID_18_" x="124.965" y="633.285" width="20.447" height="6.387"/>
				</defs>
				<clipPath id="SVGID_99_">
					<use xlink:href="#SVGID_18_"  overflow="visible"/>
				</clipPath>
			</g>
		</g>
		
			<path clip-path="url(#SVGID_60_)" fill="none" stroke="#3D3530" stroke-linecap="round" stroke-linejoin="round" stroke-miterlimit="10" d="
			M123.355,638.105c0,0-12.731,12.027-6.699,15.582C121.019,656.258,123.979,638.885,123.355,638.105z"/>
		
			<path clip-path="url(#SVGID_60_)" fill="none" stroke="#3D3530" stroke-linecap="round" stroke-linejoin="round" stroke-miterlimit="10" d="
			M123.979,637.717c0,0,4.207,5.219,2.338,11.451"/>
		<path clip-path="url(#SVGID_60_)" fill="#293842" d="M209.45,416.313c0.267,5.16,0.588,10.168,0.975,14.916
			c2.987,36.666,5.243,126.967,2.513,204.684c0,0-10.609-0.377-16.189-0.598c0.452-79.264-2.566-178.67-24.898-177.111
			c-8.216,0.574-19.954,26.475-23.295,82.75c-3.339,56.275-2.826,93.764-2.826,93.764l-18.635-0.35
			c3.676-163.391,5.115-163.27,6.067-203.332l1.516-15.445L209.45,416.313z"/>
		<g opacity="0.15" clip-path="url(#SVGID_60_)">
			<g>
				<defs>
					<rect id="SVGID_17_" x="133.435" y="415.59" width="76.761" height="12.668"/>
				</defs>
				<clipPath id="SVGID_100_">
					<use xlink:href="#SVGID_17_"  overflow="visible"/>
				</clipPath>
			</g>
		</g>
		<path clip-path="url(#SVGID_60_)" fill="#3A505E" d="M213.028,315.824c0,0,0.487,1.549,1.438,4.096l7.155-44.654
			c-0.888-0.701-3.745-1.458-5.17-1.793c-6.153-1.444-25.41-4.388-25.41-4.388c-12.078-1.026-28.267,1.54-28.267,1.54
			c-32.12,2.313-31.757,7.767-31.757,7.767c10.535,3.341,7.602,36.431,7.602,36.431s1.447,37.623,0.163,58.95l-4.105,48.024
			l75.488,0.721C207.848,377.633,213.028,315.824,213.028,315.824"/>
		<g opacity="0.15" clip-path="url(#SVGID_60_)">
			<g>
				<defs>
					<rect id="SVGID_16_" x="187.075" y="390.597" width="23.09" height="31.92"/>
				</defs>
				<clipPath id="SVGID_101_">
					<use xlink:href="#SVGID_16_"  overflow="visible"/>
				</clipPath>
			</g>
		</g>
		<g opacity="0.2" clip-path="url(#SVGID_60_)">
			<g>
				<defs>
					<rect id="SVGID_15_" x="197.972" y="430.018" width="9.507" height="206.025"/>
				</defs>
				<clipPath id="SVGID_102_">
					<use xlink:href="#SVGID_15_"  overflow="visible"/>
				</clipPath>
			</g>
		</g>
		<g opacity="0.2" clip-path="url(#SVGID_60_)">
			<g>
				<defs>
					<rect id="SVGID_14_" x="136.502" y="430.018" width="8.65" height="202.025"/>
				</defs>
				<clipPath id="SVGID_103_">
					<use xlink:href="#SVGID_14_"  overflow="visible"/>
				</clipPath>
			</g>
		</g>
		<path clip-path="url(#SVGID_60_)" fill="#3A505E" d="M98.813,362.411c0,0-12.024-70.951-11.073-80.607
			c11.539-5.248,22.073,1.099,22.073,1.099s7.786,61.723,7.605,62.995c-0.13,0.917-0.384,3.274,2.955,7.231L98.813,362.411z"/>
		<g opacity="0.15" clip-path="url(#SVGID_60_)">
			<g>
				<defs>
					<rect id="SVGID_13_" x="87.702" y="279.726" width="22.143" height="5.916"/>
				</defs>
				<clipPath id="SVGID_104_">
					<use xlink:href="#SVGID_13_"  overflow="visible"/>
				</clipPath>
			</g>
		</g>
		<path clip-path="url(#SVGID_60_)" fill="#3A505E" d="M109.313,368.775c8.625-0.411,15.599-18.411,16.889-21.42
			c4.625-10.792,15.417-31.921,15.417-31.921s1.819-17.554-0.172-23.402c-6.078-17.854-10.408-13.729-10.408-13.729
			s-25.385,61.662-32.541,80.752C98.498,359.056,97.365,369.344,109.313,368.775"/>
		<path clip-path="url(#SVGID_60_)" fill="#3A505E" d="M221.631,275.285c0,0,23.752,67.221,25.037,87.007
			c0,0-20.242,58.208-28.465,68.487l-18.105-12.887c0,0,22.617-51.552,23.388-52.58c0.77-1.028,3.084-4.368-1.543-15.16
			c-3.744-8.736-3.748-8.502-15.986-40.385c0,0-2.076-17.648,0.172-23.401C211.42,272.826,221.631,275.285,221.631,275.285"/>
		<g opacity="0.15" clip-path="url(#SVGID_60_)">
			<g>
				<defs>
					<rect id="SVGID_12_" x="201.128" y="418.627" width="17.086" height="12.152"/>
				</defs>
				<clipPath id="SVGID_105_">
					<use xlink:href="#SVGID_12_"  overflow="visible"/>
				</clipPath>
			</g>
		</g>
		<path clip-path="url(#SVGID_60_)" fill="#FFBE91" d="M209.822,438.303c-4.734-2.445-9.657-4.537-14.66-6.277
			c2.37-2.676,4.4-6.131,4.4-6.131c-2.147,0.297-4.694-0.229-6.89-1.457c-4.294-2.396,0.297-4.244,0.297-4.244
			c6.15,2.17,5.299,0.35,11.27-1.008c4.231,0.033,9.563,4.766,11.307,7.564c1.085,1.739-0.901,3.746-2.015,6.016
			C212.495,434.873,211.231,436.703,209.822,438.303"/>
		<g opacity="0.5" clip-path="url(#SVGID_60_)">
			<g>
				<defs>
					<rect id="SVGID_11_" x="159.329" y="378.868" width="33.667" height="9.667"/>
				</defs>
				<clipPath id="SVGID_106_">
					<use xlink:href="#SVGID_11_"  overflow="visible"/>
				</clipPath>
				<path clip-path="url(#SVGID_106_)" fill="#293842" d="M159.329,388.535c0,0,2.207-0.332,5.516-0.831
					c1.653-0.241,3.572-0.581,5.626-0.938c2.052-0.367,4.238-0.769,6.405-1.248c2.171-0.459,4.321-1.004,6.31-1.588
					c0.992-0.303,1.952-0.593,2.842-0.921c0.896-0.315,1.725-0.658,2.472-1.01c0.746-0.355,1.421-0.702,1.993-1.053
					c0.296-0.163,0.549-0.348,0.785-0.517c0.24-0.165,0.457-0.323,0.632-0.49c0.183-0.158,0.346-0.3,0.488-0.424
					c0.128-0.138,0.237-0.256,0.325-0.351c0.178-0.193,0.273-0.296,0.273-0.296s-0.08,0.115-0.23,0.33
					c-0.144,0.222-0.37,0.536-0.723,0.883c-0.162,0.189-0.365,0.371-0.592,0.563c-0.224,0.198-0.465,0.414-0.748,0.61
					c-0.547,0.421-1.201,0.847-1.947,1.246c-1.489,0.807-3.302,1.606-5.304,2.269c-1.998,0.677-4.175,1.242-6.364,1.725
					c-2.194,0.464-4.401,0.854-6.48,1.14c-2.077,0.297-4.028,0.473-5.697,0.627c-1.67,0.152-3.069,0.193-4.045,0.242
					C159.889,388.539,159.329,388.535,159.329,388.535"/>
			</g>
		</g>
		<g opacity="0.5" clip-path="url(#SVGID_60_)">
			<g>
				<defs>
					<rect id="SVGID_10_" x="167.996" y="366.8" width="24.666" height="8.068"/>
				</defs>
				<clipPath id="SVGID_107_">
					<use xlink:href="#SVGID_10_"  overflow="visible"/>
				</clipPath>
				<path clip-path="url(#SVGID_107_)" fill="#293842" d="M167.996,374.868c0,0,1.345-0.948,3.506-2.134
					c1.09-0.57,2.354-1.262,3.762-1.888c0.701-0.322,1.43-0.643,2.183-0.943c0.745-0.316,1.525-0.583,2.294-0.879
					c0.777-0.271,1.567-0.511,2.337-0.763c0.781-0.223,1.554-0.428,2.304-0.614c1.506-0.362,2.941-0.557,4.166-0.719
					c0.618-0.056,1.185-0.085,1.686-0.11c0.5-0.043,0.942,0.005,1.301,0.003c0.719,0.021,1.127,0.047,1.127,0.047
					s-0.407,0.053-1.119,0.147c-0.354,0.051-0.785,0.063-1.273,0.174c-0.487,0.096-1.036,0.202-1.636,0.295
					c-0.593,0.135-1.236,0.282-1.915,0.438c-0.672,0.184-1.381,0.377-2.114,0.577c-0.727,0.222-1.478,0.451-2.24,0.683
					c-0.756,0.259-1.523,0.522-2.291,0.785c-0.762,0.28-1.534,0.532-2.275,0.834c-0.744,0.292-1.486,0.557-2.19,0.852
					c-1.417,0.563-2.74,1.097-3.862,1.585C169.496,374.216,167.996,374.868,167.996,374.868"/>
			</g>
		</g>
		<g opacity="0.5" clip-path="url(#SVGID_60_)">
			<g>
				<defs>
					<rect id="SVGID_9_" x="160.662" y="356.739" width="26.334" height="5.796"/>
				</defs>
				<clipPath id="SVGID_108_">
					<use xlink:href="#SVGID_9_"  overflow="visible"/>
				</clipPath>
				<path clip-path="url(#SVGID_108_)" fill="#293842" d="M160.662,362.535c0,0,0.356-0.237,1.011-0.599
					c0.658-0.354,1.595-0.874,2.77-1.393c1.175-0.511,2.552-1.114,4.077-1.623c0.757-0.272,1.557-0.5,2.366-0.743
					c0.818-0.213,1.65-0.429,2.487-0.621c0.847-0.149,1.685-0.35,2.526-0.453c0.84-0.113,1.664-0.237,2.472-0.274
					c0.806-0.054,1.583-0.115,2.324-0.079c0.74,0.029,1.438-0.007,2.081,0.073c0.643,0.054,1.229,0.125,1.747,0.19
					c0.517,0.079,0.961,0.192,1.328,0.262c0.733,0.157,1.145,0.26,1.145,0.26s-0.426-0.024-1.172-0.067
					c-0.371-0.021-0.818-0.075-1.334-0.085c-0.518,0.008-1.099,0.017-1.731,0.002c-0.631-0.027-1.317,0.064-2.039,0.094
					c-0.723,0.022-1.479,0.154-2.263,0.226c-0.787,0.06-1.586,0.241-2.406,0.352c-0.821,0.111-1.639,0.321-2.466,0.477
					c-0.823,0.176-1.643,0.376-2.448,0.575c-0.796,0.235-1.598,0.405-2.352,0.648c-1.52,0.442-2.936,0.881-4.134,1.307
					c-1.196,0.43-2.206,0.767-2.896,1.048C161.059,362.381,160.662,362.535,160.662,362.535"/>
			</g>
		</g>
		<g opacity="0.15" clip-path="url(#SVGID_60_)">
			<g>
				<defs>
					<rect id="SVGID_8_" x="160.76" y="268.842" width="33.699" height="19.267"/>
				</defs>
				<clipPath id="SVGID_109_">
					<use xlink:href="#SVGID_8_"  overflow="visible"/>
				</clipPath>
			</g>
		</g>
		<path clip-path="url(#SVGID_60_)" fill="#D6996F" d="M162.979,255.078c0,0,0.354,14.352-0.709,17.363
			c-1.063,3.012,9.391,9.568,16.832,9.39c7.441-0.177,13.466-5.138,13.819-8.858c0.355-3.721-0.353-17.009,0-18.072
			C193.276,253.838,162.979,255.078,162.979,255.078"/>
		<g opacity="0.15" clip-path="url(#SVGID_60_)">
			<g>
				<defs>
					<rect id="SVGID_7_" x="162.941" y="254.47" width="30.016" height="16.234"/>
				</defs>
				<clipPath id="SVGID_110_">
					<use xlink:href="#SVGID_7_"  overflow="visible"/>
				</clipPath>
			</g>
		</g>
		<path clip-path="url(#SVGID_60_)" fill="#FFBE91" d="M220.186,207.364c0,0,2.957-4.879,6.803-4.155
			c3.847,0.724,3.07,8.837,2.574,12.171c-0.496,3.335-7.027,13.647-11.568,7.437C215.477,219.374,220.186,207.364,220.186,207.364"
			/>
		<path clip-path="url(#SVGID_60_)" fill="#FFBE91" d="M136.104,203.757c0,0-4.944-5.99-7.769,1.215
			c-2.825,7.205-0.907,18.357,9.105,18.313C141.001,223.271,136.104,203.757,136.104,203.757"/>
		<path clip-path="url(#SVGID_60_)" fill="#FFBE91" d="M135.703,240.22c0.699-7.66,2.192-19.19,0.272-30.765
			c-1.918-11.575-8.557-42.645,31.534-50.558c40.091-7.912,60.652,13.455,54.56,43.663c-6.094,30.209-2.489,27.133-3.635,36.14
			c-0.717,5.627-3.305,10.363-9.883,14.005c-9.465,5.241-27.907,12.638-31.611,12.284c-3.704-0.355-24.696-12.211-33.422-15.3
			C135.255,246.763,135.425,243.277,135.703,240.22"/>
		<g opacity="0.05" clip-path="url(#SVGID_60_)">
			<g>
				<defs>
					<rect id="SVGID_6_" x="132.517" y="147.365" width="93.974" height="108.117"/>
				</defs>
				<clipPath id="SVGID_111_">
					<use xlink:href="#SVGID_6_"  overflow="visible"/>
				</clipPath>
			</g>
		</g>
		<path clip-path="url(#SVGID_60_)" fill="#534741" d="M188.274,212.357c0,0-2.831-2.787-1.195-5.726
			c1.636-2.94,7.467-4.22,11.869-3.703c4.401,0.517,7.364,4.962,3.745,8.389C199.075,214.746,190.98,215.421,188.274,212.357"/>
		<path clip-path="url(#SVGID_60_)" fill="#F9F5E4" d="M188.316,212.98c0,0-2.83-2.786-1.193-5.726
			c1.635-2.94,7.402-3.552,11.804-3.034c4.401,0.517,7.428,4.293,3.809,7.72C199.118,215.368,191.023,216.045,188.316,212.98"/>
		<path clip-path="url(#SVGID_60_)" fill="#332C28" d="M198.158,209.568c-0.142,1.483-1.458,2.57-2.942,2.428
			c-1.483-0.141-2.57-1.458-2.428-2.941c0.142-1.483,1.458-2.57,2.942-2.428C197.213,206.769,198.3,208.085,198.158,209.568"/>
		<path clip-path="url(#SVGID_60_)" fill="#534741" d="M144.071,198.104c0,0,2.538-1.593,7.287-3.367
			c3.714-1.386,8.293-1.723,10.644-1.014c2.352,0.709,6.296,3.989,4.88,4.628s-6.851-0.722-10.516-0.329
			c-3.813,0.41-7.059,0.97-9.137,1.448C145.257,199.924,143.321,199.873,144.071,198.104"/>
		<path clip-path="url(#SVGID_60_)" fill="#534741" d="M189.953,198.913c0,0-4.243,0.853-4.808-1.33
			c-0.565-2.183,1.828-2.922,5.961-2.624c4.131,0.299,13.649,2.951,15.192,5.034c1.544,2.083,0.995,1.74-0.365,1.803
			C204.571,201.859,198.807,198.405,189.953,198.913"/>
		<path clip-path="url(#SVGID_60_)" fill="#534741" d="M225.031,166.081c-6.048-6.773-4.238-13.464-4.238-13.464
			s-3.924,0.796-8.105,0.731c-4.18-0.065-8.91-4.87-13.814-7.851c-4.906-2.98-13.053-0.077-13.053-0.077
			c0.43-4.48,6.71-5.385,6.71-5.385c-10.927,0.461-12.897,5.296-14.999,6.267c-2.102,0.97-9.463-2.579-9.463-2.579
			c-2.276-0.721-2.048,2.148-7.191,1.656c-5.844-0.559-8.255,0.549-8.255,0.549c5.64,0.54,8.721,3.346,8.721,3.346
			c-6.819-0.485-8.829,6.522-8.829,6.522c-4.21-3.249-11.598-1.276-16.261,1.961c-4.663,3.237-7.218,14.211-7.218,14.211l9.23-5.48
			c-10.673,13.545-6.367,35.053-6.367,35.053c3.088,0.965,2.796,2.276,4.106,6.085s-0.655,25.563-1.221,28.514
			c-0.694,3.62-0.02,9.967,5.898,13.623c5.433,3.358,33.153,15.728,36.952,16.259c3.8,0.531,21.669-7.963,29.901-11.539
			c8.819-3.83,10.561-8.868,10.948-11.174c0.388-2.307,3.205-33.515,3.246-35.687c0.039-2.173,2.988-22.484,5.32-27.619
			C229.383,174.869,231.08,172.854,225.031,166.081 M207.316,230.52c-1.64,1.156-11.652,4.868-20.777,3.995
			c0,0-2.02,5.043-6.231,5.309c-4.212,0.267-8.345-0.71-9.741-1.434c-3.813-1.976-4.163-3.746-4.163-3.746
			s-9.828-0.324-13.083-1.305c-3.255-0.981-9.669-5.894-10.898-14.048c-1.229-8.154-3.02-15.693-3.02-15.693l-1.448-9.347
			c0.394-0.632,4.204-1.941,5.375-7.187c1.171-5.246,1.583-6.044,1.583-6.044s8.067-2.074,8.944-2.493
			c0.877-0.418,8.021-5.093,8.021-5.093l9.91-2.065c0,0-6.004,5.965-8.728,7.335c2.622-0.671,9.552-2.399,12.81-2.759l4.062-0.449
			c0,0,11.171-1.275,13.011-1.267c0,0,1.313-3.223-1.15-5.468c0,0,6.666,3.819,9.187,3.725c2.52-0.093,6.415-0.557,6.415-0.557
			l3.875-1.153l2.017-0.409l-4.096,10.775c0,0,5.204-5.364,6.231-5.6c0,0-1.408,19.957-3.953,22.058c0,0,4.498-3.253,4.64-4.747
			c0,0-0.298,15.375-1.177,19.309C214.932,212.162,212.459,226.895,207.316,230.52"/>
		<path clip-path="url(#SVGID_60_)" fill="#D6996F" d="M170.857,221.341c0,0-1.332,10.421-4.659,11.944
			c-3.326,1.523,3.98,7.412,10.364,7.185c6.383-0.226,10.074-2.049,10.075-5.565c0.003-3.516-1.877-4.868-1.877-4.868
			s2.257,4.402,0.241,6.218c-2.014,1.817-5.492,3.158-8.858,3.338c-3.365,0.181-10.697-3.702-9.029-5.384
			C168.782,232.528,171.613,227.441,170.857,221.341"/>
		<path clip-path="url(#SVGID_60_)" fill="#FFFFFF" d="M164.345,246.225c0,0,20.196,0.232,29.284-3.721
			c0,0-1.759,10.309-13.755,10.442C167.878,253.079,164.345,246.225,164.345,246.225"/>
		<g opacity="0.3" clip-path="url(#SVGID_60_)">
			<g>
				<defs>
					<rect id="SVGID_5_" x="144.356" y="215.585" width="22.97" height="5.331"/>
				</defs>
				<clipPath id="SVGID_112_">
					<use xlink:href="#SVGID_5_"  overflow="visible"/>
				</clipPath>
				<path clip-path="url(#SVGID_112_)" fill="#D6996F" d="M144.356,219.804c0,0,0.267-0.324,0.705-0.763
					c0.438-0.439,1.039-1.004,1.676-1.526c0.633-0.526,1.301-1.01,1.815-1.357c0.515-0.347,0.884-0.547,0.884-0.547
					s-0.267,0.324-0.705,0.764c-0.437,0.438-1.04,1.003-1.676,1.525c-0.633,0.527-1.303,1.009-1.816,1.357
					C144.724,219.603,144.356,219.804,144.356,219.804"/>
				<path clip-path="url(#SVGID_112_)" fill="#D6996F" d="M150.356,219.778c0,0,0.267-0.324,0.705-0.763
					c0.439-0.439,1.04-1.004,1.676-1.526c0.634-0.526,1.302-1.01,1.817-1.357c0.514-0.347,0.883-0.547,0.883-0.547
					s-0.266,0.324-0.705,0.764c-0.438,0.439-1.04,1.003-1.676,1.525c-0.634,0.527-1.303,1.009-1.817,1.357
					C150.724,219.577,150.356,219.778,150.356,219.778"/>
				<path clip-path="url(#SVGID_112_)" fill="#D6996F" d="M156.302,220.347c0,0,0.267-0.324,0.705-0.763
					c0.439-0.439,1.039-1.005,1.676-1.527c0.634-0.526,1.302-1.01,1.816-1.356c0.515-0.347,0.884-0.547,0.884-0.547
					s-0.267,0.324-0.705,0.763c-0.438,0.44-1.04,1.004-1.677,1.526c-0.633,0.527-1.302,1.009-1.816,1.357
					C156.67,220.146,156.302,220.347,156.302,220.347"/>
				<path clip-path="url(#SVGID_112_)" fill="#D6996F" d="M162.247,220.916c0,0,0.267-0.324,0.705-0.763
					c0.438-0.439,1.039-1.005,1.675-1.527c0.634-0.526,1.302-1.01,1.816-1.356c0.514-0.347,0.883-0.547,0.883-0.547
					s-0.266,0.324-0.704,0.763c-0.438,0.44-1.04,1.004-1.676,1.526c-0.634,0.527-1.303,1.009-1.816,1.357
					C162.615,220.714,162.247,220.916,162.247,220.916"/>
			</g>
		</g>
		<g opacity="0.3" clip-path="url(#SVGID_60_)">
			<g>
				<defs>
					<rect id="SVGID_4_" x="184.378" y="217.374" width="22.972" height="5.33"/>
				</defs>
				<clipPath id="SVGID_113_">
					<use xlink:href="#SVGID_4_"  overflow="visible"/>
				</clipPath>
				<path clip-path="url(#SVGID_113_)" fill="#D6996F" d="M184.378,221.593c0,0,0.267-0.324,0.705-0.763
					c0.438-0.439,1.039-1.005,1.676-1.527c0.633-0.526,1.301-1.01,1.815-1.357c0.515-0.347,0.884-0.547,0.884-0.547
					s-0.267,0.324-0.705,0.764c-0.437,0.439-1.04,1.004-1.676,1.526c-0.633,0.526-1.302,1.009-1.816,1.357
					C184.746,221.392,184.378,221.593,184.378,221.593"/>
				<path clip-path="url(#SVGID_113_)" fill="#D6996F" d="M190.379,221.566c0,0,0.267-0.324,0.705-0.763
					c0.439-0.439,1.039-1.004,1.676-1.526c0.634-0.526,1.302-1.01,1.816-1.357c0.515-0.347,0.884-0.547,0.884-0.547
					s-0.267,0.324-0.705,0.764c-0.438,0.438-1.04,1.003-1.677,1.525c-0.633,0.527-1.302,1.009-1.816,1.357
					C190.748,221.365,190.379,221.566,190.379,221.566"/>
				<path clip-path="url(#SVGID_113_)" fill="#D6996F" d="M196.325,222.135c0,0,0.267-0.324,0.705-0.763s1.039-1.004,1.675-1.526
					c0.634-0.526,1.302-1.01,1.816-1.357c0.514-0.347,0.883-0.547,0.883-0.547s-0.266,0.324-0.704,0.764
					c-0.438,0.439-1.04,1.003-1.676,1.525c-0.634,0.527-1.303,1.009-1.816,1.357C196.693,221.935,196.325,222.135,196.325,222.135"
					/>
				<path clip-path="url(#SVGID_113_)" fill="#D6996F" d="M202.268,222.704c0,0,0.267-0.324,0.705-0.763
					c0.439-0.439,1.04-1.004,1.677-1.526c0.633-0.526,1.302-1.01,1.816-1.357c0.515-0.347,0.884-0.547,0.884-0.547
					s-0.267,0.324-0.705,0.764c-0.438,0.439-1.04,1.003-1.677,1.525c-0.634,0.527-1.303,1.009-1.817,1.357
					C202.636,222.502,202.268,222.704,202.268,222.704"/>
			</g>
		</g>
		<path clip-path="url(#SVGID_60_)" fill="#D6996F" d="M166.225,208.905c0,0-1.677-5.032-5.457-5.002c0,0,2.574,0.424,2.948,2.27
			c0,0-8.622-4.624-17.373,2.276c0,0,10.02-6.039,16.818-0.477c0,0-3.685-1.581-6.125,1.049c0,0,3.94-1.355,5.592,0.017
			C165.462,211.393,166.225,208.905,166.225,208.905"/>
		<path clip-path="url(#SVGID_60_)" fill="#534741" d="M166.225,208.905c0,0-0.256-0.215-0.737-0.54
			c-0.476-0.333-1.184-0.768-2.069-1.21c-0.436-0.235-0.931-0.442-1.455-0.654c-0.525-0.209-1.097-0.382-1.682-0.565
			c-0.599-0.141-1.209-0.325-1.852-0.39c-0.32-0.04-0.64-0.107-0.964-0.126l-0.98-0.035c-0.653-0.071-1.305,0.052-1.949,0.066
			c-0.641,0.062-1.259,0.219-1.866,0.318c-0.595,0.151-1.159,0.346-1.704,0.498c-0.55,0.143-1.018,0.417-1.479,0.596
			c-0.451,0.204-0.884,0.357-1.225,0.573c-0.353,0.197-0.661,0.369-0.914,0.511c-0.513,0.279-0.805,0.438-0.805,0.438
			s0.274-0.189,0.753-0.521c0.242-0.163,0.536-0.362,0.874-0.59c0.327-0.249,0.746-0.44,1.196-0.665
			c0.458-0.206,0.922-0.509,1.474-0.684c0.547-0.184,1.114-0.42,1.726-0.577c0.621-0.113,1.257-0.285,1.917-0.36
			c0.663-0.028,1.337-0.165,2.013-0.102l1.013,0.054c0.335,0.025,0.664,0.099,0.993,0.146c0.662,0.079,1.288,0.278,1.901,0.435
			c0.602,0.189,1.176,0.405,1.701,0.645c0.525,0.244,1.016,0.481,1.448,0.742c0.879,0.492,1.54,1.013,1.993,1.38
			C165.999,208.658,166.225,208.905,166.225,208.905"/>
		<path clip-path="url(#SVGID_60_)" fill="#FFBE91" d="M108.958,271.001c-1.001-1.135-1.137-1.469-2.205-1.536
			c0,0-0.056-0.131-0.135-0.381c-0.026-0.952-0.447-16.11-0.718-17.737c-0.629-3.779-5.148-3.433-5.415-0.629
			c-0.267,2.804-0.176,6.702,0.358,14.649c0,0-0.5-1.311-2.437-1.311c-1.936,0-2.207,1.202-2.207,1.202s-1.859-1.32-2.992-0.975
			c-1.174,0.358-1.774,0.986-1.774,0.986s-2.709-0.789-3.11,0.19c-2.173,5.303-0.636,18.561,5.704,19.797
			c0.047,0.014,0.083,0.038,0.132,0.051c3.198,0.805,8.601,1.025,11.611-1.17c2.364-1.724,3.251-2.907,3.744-5.665
			C109.992,275.792,110.658,272.928,108.958,271.001"/>
		<g opacity="0.1" clip-path="url(#SVGID_60_)">
			<g>
				<defs>
					<rect id="SVGID_3_" x="173.74" y="140.035" width="74.589" height="533.901"/>
				</defs>
				<clipPath id="SVGID_114_">
					<use xlink:href="#SVGID_3_"  overflow="visible"/>
				</clipPath>
			</g>
		</g>
	</g>
</g>
</svg>
